<svg xmlns="http://www.w3.org/2000/svg" xmlns:xlink="http://www.w3.org/1999/xlink" width="250" zoomAndPan="magnify" viewBox="0 0 187.5 38.999999" height="52" preserveAspectRatio="xMidYMid meet" version="1.0"><defs><g/><clipPath id="e3beb56ee1"><path d="M 0 0.0507812 L 62.085938 0.0507812 L 62.085938 38.933594 L 0 38.933594 Z M 0 0.0507812 " clip-rule="nonzero"/></clipPath></defs><g fill="#000000" fill-opacity="1"><g transform="translate(52.513594, 36.432087)"><g><path d="M 16.71875 0.570312 C 24.402344 0.570312 29.101562 -3.679688 29.960938 -10.136719 L 23.542969 -10.136719 C 22.929688 -6.457031 20.230469 -4.699219 16.554688 -4.699219 C 10.832031 -4.699219 7.726562 -9.113281 7.726562 -15.613281 C 7.726562 -22.070312 10.832031 -26.484375 16.554688 -26.484375 C 20.230469 -26.484375 22.96875 -24.726562 23.542969 -21.417969 L 29.960938 -21.417969 C 29.101562 -27.546875 24.402344 -31.757812 16.71875 -31.757812 C 6.375 -31.757812 1.59375 -24.238281 1.59375 -15.613281 C 1.59375 -6.988281 6.375 0.570312 16.71875 0.570312 Z M 16.71875 0.570312 "/></g></g></g><g fill="#000000" fill-opacity="1"><g transform="translate(83.851567, 36.432087)"><g><path d="M 8.050781 0 L 8.050781 -11.691406 C 8.050781 -14.714844 8.417969 -16.390625 9.359375 -17.492188 C 10.09375 -18.394531 11.28125 -18.882812 12.875 -18.882812 C 14.183594 -18.882812 15.121094 -18.554688 15.777344 -17.859375 C 16.554688 -17.003906 16.878906 -15.613281 16.878906 -13.285156 L 16.878906 0 L 22.398438 0 L 22.398438 -13.203125 C 22.398438 -15.492188 22.398438 -17.574219 21.417969 -19.578125 C 20.4375 -21.703125 18.433594 -23.421875 14.265625 -23.421875 C 11.8125 -23.421875 9.890625 -22.601562 8.050781 -20.027344 L 8.050781 -31.1875 L 2.535156 -31.1875 L 2.535156 0 Z M 8.050781 0 "/></g></g></g><g fill="#000000" fill-opacity="1"><g transform="translate(108.570575, 36.432087)"><g><path d="M 9.113281 0.449219 C 11.078125 0.449219 12.875 0.121094 14.304688 -0.816406 C 15.164062 -1.347656 15.816406 -2.085938 16.390625 -3.105469 L 16.390625 0 L 21.90625 0 L 21.90625 -11.933594 C 21.90625 -15.121094 21.90625 -18.71875 19.210938 -21.089844 C 17.492188 -22.683594 14.917969 -23.421875 12.261719 -23.421875 C 7.726562 -23.421875 3.269531 -20.96875 2.453125 -15.613281 L 7.929688 -15.613281 C 8.339844 -17.78125 10.136719 -19.085938 12.222656 -19.085938 C 13.527344 -19.085938 14.589844 -18.71875 15.285156 -17.984375 C 15.980469 -17.25 16.347656 -16.144531 16.390625 -14.753906 L 9.5625 -13.488281 C 7.644531 -13.121094 5.679688 -12.546875 4.210938 -11.527344 C 2.617188 -10.421875 1.59375 -8.746094 1.59375 -6.292969 C 1.59375 -1.921875 4.78125 0.449219 9.113281 0.449219 Z M 10.464844 -3.882812 C 8.542969 -3.882812 7.113281 -4.78125 7.113281 -6.5 C 7.113281 -7.273438 7.398438 -7.847656 7.847656 -8.296875 C 8.5 -8.910156 9.441406 -9.320312 11.035156 -9.605469 L 16.511719 -10.707031 C 16.429688 -7.683594 15.816406 -5.722656 13.40625 -4.535156 C 12.507812 -4.085938 11.484375 -3.882812 10.464844 -3.882812 Z M 10.464844 -3.882812 "/></g></g></g><g fill="#000000" fill-opacity="1"><g transform="translate(132.71757, 36.432087)"><g><path d="M 14.222656 0 L 14.222656 -4.578125 L 11.730469 -4.578125 C 10.015625 -4.578125 9.851562 -5.519531 9.851562 -6.703125 L 9.851562 -18.515625 L 14.265625 -18.515625 L 14.265625 -22.929688 L 9.851562 -22.929688 L 9.851562 -31.1875 L 4.332031 -31.1875 L 4.332031 -22.929688 L 0.941406 -22.929688 L 0.941406 -18.515625 L 4.332031 -18.515625 L 4.332031 -5.027344 C 4.332031 -1.472656 6.292969 0 9.6875 0 Z M 14.222656 0 "/></g></g></g><g clip-path="url(#e3beb56ee1)"><path fill="#369eff" d="M 62.226562 3.867188 L 58.464844 0.292969 L 28.832031 31.480469 L 26.035156 28.777344 L 49.703125 3.867188 L 45.945312 0.292969 L 22.304688 25.171875 L 16.148438 19.222656 L 12.542969 22.953125 L 18.730469 28.933594 L 16.308594 31.480469 L 3.628906 19.222656 L 0.0234375 22.953125 L 12.738281 35.242188 L 12.730469 35.246094 L 13.398438 35.878906 L 16.421875 38.804688 L 16.449219 38.78125 L 16.492188 38.820312 L 22.460938 32.539062 L 25.257812 35.242188 L 25.253906 35.246094 L 25.917969 35.878906 L 28.945312 38.804688 L 28.96875 38.78125 L 29.011719 38.820312 Z M 62.226562 3.867188 " fill-opacity="1" fill-rule="nonzero"/></g><path fill="#438fd6" d="M 22.460938 32.539062 L 26.035156 28.777344 L 22.304688 25.171875 L 18.730469 28.933594 Z M 22.460938 32.539062 " fill-opacity="1" fill-rule="nonzero"/><g fill="#000000" fill-opacity="1"><g transform="translate(148.697869, 37.706972)"><g><path d="M 28.351562 0 L 28.351562 -6.136719 L 10.179688 -6.136719 L 28.304688 -31.347656 L 28.304688 -36.296875 L 2.332031 -36.296875 L 2.332031 -30.160156 L 19.695312 -30.160156 L 1.285156 -4.710938 L 1.285156 0 Z M 28.351562 0 "/></g></g></g><g fill="#000000" fill-opacity="1"><g transform="translate(177.652803, 36.694363)"><g><path d="M 4.0625 -19.613281 C 5.476562 -19.613281 6.675781 -20.558594 6.675781 -22.039062 C 6.675781 -23.453125 5.476562 -24.460938 4.0625 -24.460938 C 2.613281 -24.460938 1.449219 -23.453125 1.449219 -22.039062 C 1.449219 -20.558594 2.613281 -19.613281 4.0625 -19.613281 Z M 6.171875 0 L 6.171875 -17.660156 L 1.921875 -17.660156 L 1.921875 0 Z M 6.171875 0 "/></g></g></g></svg>