<svg xmlns="http://www.w3.org/2000/svg" xmlns:xlink="http://www.w3.org/1999/xlink" width="512" zoomAndPan="magnify" viewBox="0 0 384 383.999986" height="512" preserveAspectRatio="xMidYMid meet" version="1.0"><path fill="#369eff" d="M 383.855469 95.609375 L 360.664062 73.566406 L 177.855469 265.960938 L 160.601562 249.28125 L 306.617188 95.609375 L 283.425781 73.566406 L 137.59375 227.039062 L 99.625 190.335938 L 77.382812 213.34375 L 115.550781 250.238281 L 100.617188 265.960938 L 22.382812 190.335938 L 0.144531 213.34375 L 78.574219 289.160156 L 78.542969 289.191406 L 82.648438 293.097656 L 101.3125 311.144531 L 101.472656 310.984375 L 101.734375 311.230469 L 138.558594 272.480469 L 155.816406 289.160156 L 155.777344 289.191406 L 159.886719 293.097656 L 178.550781 311.144531 L 178.703125 310.984375 L 178.976562 311.230469 Z M 383.855469 95.609375 " fill-opacity="1" fill-rule="nonzero"/><path fill="#438fd6" d="M 138.558594 272.480469 L 160.601562 249.28125 L 137.59375 227.039062 L 115.550781 250.238281 Z M 138.558594 272.480469 " fill-opacity="1" fill-rule="nonzero"/></svg>